<?xml version="1.0" encoding="utf-8"?>
<!-- Generator: Adobe Illustrator 19.0.0, SVG Export Plug-In . SVG Version: 6.00 Build 0)  -->
<svg version="1.1" id="Layer_1" xmlns="http://www.w3.org/2000/svg" xmlns:xlink="http://www.w3.org/1999/xlink" x="0px" y="0px"
	 viewBox="-149 23 50 30" style="enable-background:new -149 23 50 30;" xml:space="preserve">
<style type="text/css">
	.st0{fill:#F58021;}
</style>
<path class="st0" d="M-102.7,28c-5.8,3.9-10.2,7-13.2,9.2c-1,0.7-1.8,1.3-2.5,1.7c-0.6,0.4-1.5,0.8-2.5,1.3c-1,0.4-2,0.7-2.9,0.7
	l0,0l0,0c-0.9,0-1.9-0.2-2.9-0.7c-1-0.4-1.9-0.9-2.5-1.3c-0.6-0.4-1.4-1-2.5-1.7c-2.4-1.8-6.8-4.8-13.2-9.2c-1-0.7-1.9-1.4-2.7-2.3
	v21.1c0,1.2,0.4,2.2,1.2,3s1.8,1.2,3,1.2h39.1c1.2,0,2.2-0.4,3-1.2s1.2-1.8,1.2-3V25.7C-100.8,26.5-101.7,27.3-102.7,28z"/>
</svg>
