<?xml version="1.0" encoding="utf-8"?>
<!-- Generator: Adobe Illustrator 19.0.0, SVG Export Plug-In . SVG Version: 6.00 Build 0)  -->
<svg version="1.1" id="Layer_1" xmlns="http://www.w3.org/2000/svg" xmlns:xlink="http://www.w3.org/1999/xlink" x="0px" y="0px"
	 viewBox="-149 22.9 50 30" style="enable-background:new -149 22.9 50 30;" xml:space="preserve">
<style type="text/css">
	.st0{fill:#F58021;}
</style>
<path class="st0" d="M-143.1,37.8c0.6,0.4,2.4,1.7,5.4,3.8c3,2.1,5.3,3.7,7,4.8c0.2,0.1,0.6,0.4,1.1,0.8c0.6,0.4,1.1,0.8,1.4,1
	c0.4,0.3,0.8,0.5,1.4,0.9c0.5,0.3,1,0.6,1.5,0.7c0.5,0.2,0.9,0.2,1.3,0.2l0,0l0,0c0.4,0,0.8-0.1,1.3-0.2c0.5-0.2,1-0.4,1.5-0.7
	c0.5-0.3,1-0.6,1.4-0.9s0.9-0.6,1.4-1c0.6-0.4,1-0.7,1.1-0.8c1.6-1.1,5.8-4,12.4-8.6c1.3-0.9,2.4-2,3.2-3.3c0.9-1.3,1.3-2.6,1.3-4
	c0-1.2-0.4-2.2-1.3-3c-0.8-0.8-1.8-1.2-3-1.2h-39.1c-1.4,0-2.4,0.5-3.1,1.4c-0.7,0.9-1.1,2.1-1.1,3.5c0,1.1,0.5,2.3,1.5,3.6
	C-145.3,36.1-144.2,37.1-143.1,37.8z"/>
</svg>
