<?xml version="1.0" encoding="utf-8"?>
<!-- Generator: Adobe Illustrator 19.0.0, SVG Export Plug-In . SVG Version: 6.00 Build 0)  -->
<svg version="1.1" id="Layer_1" xmlns="http://www.w3.org/2000/svg" xmlns:xlink="http://www.w3.org/1999/xlink" x="0px" y="0px"
	 viewBox="-159 22.5 50 30" style="enable-background:new -159 22.5 50 30;" xml:space="preserve">
<style type="text/css">
	.st0{fill:#311B92;}
</style>
<path class="st0" d="M-154.2,27.8l40.9-1.7c0.6,0,1.1,0.4,1.1,0.9v2.9c0,0.5-0.5,0.9-1.1,0.9l-40.9-1.8
	C-154.9,29-154.9,27.8-154.2,27.8z"/>
<path class="st0" d="M-154.2,37.3l40.9-1.7c0.6,0,1.1,0.4,1.1,0.9v2.9c0,0.5-0.5,0.9-1.1,0.9l-40.9-1.8
	C-154.9,38.5-154.9,37.3-154.2,37.3z"/>
<path class="st0" d="M-154.2,46.3l40.9-1.7c0.6,0,1.1,0.4,1.1,0.9v2.9c0,0.5-0.5,0.9-1.1,0.9l-40.9-1.8
	C-154.9,47.5-154.9,46.3-154.2,46.3z"/>
</svg>
