<?xml version="1.0" encoding="utf-8"?>
<!-- Generator: Adobe Illustrator 19.0.0, SVG Export Plug-In . SVG Version: 6.00 Build 0)  -->
<svg version="1.1" id="Layer_1" xmlns="http://www.w3.org/2000/svg" xmlns:xlink="http://www.w3.org/1999/xlink" x="0px" y="0px"
	 viewBox="-14 96 219.9 60" style="enable-background:new -14 96 219.9 60;" xml:space="preserve">
<style type="text/css">
	.st0{fill-opacity:0;}
	.st1{fill:#FFFFFF;}
</style>
<rect id="XMLID_17_" x="-14" y="96" class="st0" width="219.9" height="60"/>
<g>
	<path class="st1" d="M96.5,134.4v4.7H83.1v-21.3h13.3v4.7H88v3.5h7.6v4.6H88v3.8H96.5z"/>
	<path class="st1" d="M113.3,125.1c0,4.1-3.3,7.3-7.5,7.3h-3.2v6.7h-4.9v-21.3h8.1C110,117.8,113.3,121.1,113.3,125.1z M108.4,125.1
		c0-1.6-1.1-2.7-2.6-2.7h-3.2v5.5h3.2C107.3,127.9,108.4,126.7,108.4,125.1z"/>
	<path class="st1" d="M119.1,117.8v21.3h-4.9v-21.3H119.1z"/>
	<path class="st1" d="M120.3,128.5c0-6.3,4.7-11.1,11.1-11.1c3.9,0,7.3,1.9,9.1,4.9l-4.2,2.4c-0.9-1.6-2.8-2.6-4.9-2.6
		c-3.8,0-6.2,2.5-6.2,6.3s2.4,6.3,6.2,6.3c2.2,0,4-1,4.9-2.6l4.2,2.4c-1.8,3-5.2,4.9-9.1,4.9C124.9,139.6,120.3,134.7,120.3,128.5z"
		/>
	<path class="st1" d="M162.6,139.1h-4.9v-12.4l-5.5,9.1h-0.5l-5.5-9.1v12.4h-4.9v-21.3h4.9l5.8,9.5l5.8-9.5h4.9v21.3H162.6z"/>
	<path class="st1" d="M177.2,135.8h-7.9l-1.1,3.4h-5.3l7.3-21.3h6.2l7.3,21.3h-5.3L177.2,135.8z M175.8,131.2l-2.5-7.8l-2.5,7.8
		H175.8z"/>
	<path class="st1" d="M188.8,117.8v21.3h-4.9v-21.3H188.8z"/>
	<path class="st1" d="M203.4,134.4v4.7h-12.5v-21.3h4.9v16.6H203.4z"/>
</g>
<path class="st1" d="M34.1,120.1c0.6,0.4,2.4,1.7,5.4,3.8c3,2.1,5.3,3.7,7,4.8c0.2,0.1,0.6,0.4,1.1,0.8c0.6,0.4,1.1,0.8,1.4,1
	c0.4,0.3,0.8,0.5,1.4,0.9c0.5,0.3,1,0.6,1.5,0.7c0.5,0.2,0.9,0.2,1.3,0.2l0,0l0,0c0.4,0,0.8-0.1,1.3-0.2c0.5-0.2,1-0.4,1.5-0.7
	s1-0.6,1.4-0.9c0.4-0.3,0.9-0.6,1.4-1c0.6-0.4,1-0.7,1.1-0.8c1.6-1.1,5.8-4,12.4-8.6c1.3-0.9,2.4-2,3.2-3.3c0.9-1.3,1.3-2.6,1.3-4
	c0-1.2-0.4-2.2-1.3-3c-0.8-0.8-1.8-1.2-3-1.2H33.4c-1.4,0-2.4,0.5-3.1,1.4s-1.1,2.1-1.1,3.5c0,1.1,0.5,2.3,1.5,3.6
	C31.9,118.4,33,119.4,34.1,120.1z"/>
<path class="st1" d="M74.4,123c-5.8,3.9-10.2,7-13.2,9.2c-1,0.7-1.8,1.3-2.5,1.7c-0.6,0.4-1.5,0.8-2.5,1.3c-1,0.4-2,0.7-2.9,0.7l0,0
	l0,0c-0.9,0-1.9-0.2-2.9-0.7c-1-0.4-1.9-0.9-2.5-1.3c-0.6-0.4-1.4-1-2.5-1.7c-2.4-1.8-6.8-4.8-13.2-9.2c-1-0.7-1.9-1.4-2.7-2.3v21.1
	c0,1.2,0.4,2.2,1.2,3c0.8,0.8,1.8,1.2,3,1.2h39.1c1.2,0,2.2-0.4,3-1.2c0.8-0.8,1.2-1.8,1.2-3v-21.1C76.3,121.5,75.4,122.3,74.4,123z
	"/>
<path class="st1" d="M-8.8,118.5l33.5-1.7c0.5,0,0.9,0.4,0.9,0.9v2.9c0,0.5-0.4,0.9-0.9,0.9l-33.5-1.8
	C-9.4,119.7-9.4,118.5-8.8,118.5z"/>
<path class="st1" d="M-8.8,128l33.5-1.7c0.5,0,0.9,0.4,0.9,0.9v2.9c0,0.5-0.4,0.9-0.9,0.9l-33.5-1.8C-9.4,129.2-9.4,128-8.8,128z"/>
<path class="st1" d="M-8.8,137.1l33.5-1.7c0.5,0,0.9,0.4,0.9,0.9v2.9c0,0.5-0.4,0.9-0.9,0.9l-33.5-1.8
	C-9.4,138.3-9.4,137.1-8.8,137.1z"/>
</svg>
