<?xml version="1.0" encoding="utf-8"?>
<!-- Generator: Adobe Illustrator 19.0.0, SVG Export Plug-In . SVG Version: 6.00 Build 0)  -->
<svg version="1.1" id="Layer_1" xmlns="http://www.w3.org/2000/svg" xmlns:xlink="http://www.w3.org/1999/xlink" x="0px" y="0px"
	 viewBox="-68.5 96 219.9 60" style="enable-background:new -68.5 96 219.9 60;" xml:space="preserve">
<style type="text/css">
	.st0{fill:#311B92;}
	.st1{fill-opacity:0;}
	.st2{fill:#F68021;}
</style>
<g>
	<path class="st0" d="M42,134.4v4.7H28.6v-21.3h13.3v4.7h-8.4v3.5h7.6v4.6h-7.6v3.8H42z"/>
	<path class="st0" d="M58.8,125.1c0,4.1-3.3,7.3-7.5,7.3h-3.2v6.7h-4.9v-21.3h8.1C55.5,117.8,58.8,121.1,58.8,125.1z M53.9,125.1
		c0-1.6-1.1-2.7-2.6-2.7h-3.2v5.5h3.2C52.8,127.9,53.9,126.7,53.9,125.1z"/>
	<path class="st0" d="M64.6,117.8v21.3h-4.9v-21.3H64.6z"/>
	<path class="st0" d="M65.8,128.5c0-6.3,4.7-11.1,11.1-11.1c3.9,0,7.3,1.9,9.1,4.9l-4.2,2.4c-0.9-1.6-2.8-2.6-4.9-2.6
		c-3.8,0-6.2,2.5-6.2,6.3c0,3.8,2.4,6.3,6.2,6.3c2.2,0,4-1,4.9-2.6l4.2,2.4c-1.8,3-5.2,4.9-9.1,4.9
		C70.4,139.6,65.8,134.7,65.8,128.5z"/>
	<path class="st0" d="M108.1,139.1h-4.9v-12.4l-5.5,9.1h-0.5l-5.5-9.1v12.4h-4.9v-21.3h4.9l5.8,9.5l5.8-9.5h4.9V139.1z"/>
	<path class="st0" d="M122.7,135.8h-7.9l-1.1,3.4h-5.3l7.3-21.3h6.2l7.3,21.3h-5.3L122.7,135.8z M121.3,131.2l-2.5-7.8l-2.5,7.8
		H121.3z"/>
	<path class="st0" d="M134.3,117.8v21.3h-4.9v-21.3H134.3z"/>
	<path class="st0" d="M148.9,134.4v4.7h-12.5v-21.3h4.9v16.6H148.9z"/>
</g>
<rect id="XMLID_17_" x="-68.5" y="96" class="st1" width="219.9" height="60"/>
<path class="st2" d="M-20.4,120.1c0.6,0.4,2.4,1.7,5.4,3.8c3,2.1,5.3,3.7,7,4.8c0.2,0.1,0.6,0.4,1.1,0.8c0.6,0.4,1.1,0.8,1.4,1
	c0.4,0.3,0.8,0.5,1.4,0.9c0.5,0.3,1,0.6,1.5,0.7c0.5,0.2,0.9,0.2,1.3,0.2h0h0c0.4,0,0.8-0.1,1.3-0.2c0.5-0.2,1-0.4,1.5-0.7
	c0.5-0.3,1-0.6,1.4-0.9c0.4-0.3,0.9-0.6,1.4-1c0.6-0.4,1-0.7,1.1-0.8c1.6-1.1,5.8-4,12.4-8.6c1.3-0.9,2.4-2,3.2-3.3
	c0.9-1.3,1.3-2.6,1.3-4c0-1.2-0.4-2.2-1.3-3c-0.8-0.8-1.8-1.2-3-1.2h-39.1c-1.4,0-2.4,0.5-3.1,1.4c-0.7,0.9-1.1,2.1-1.1,3.5
	c0,1.1,0.5,2.3,1.5,3.6C-22.6,118.4-21.5,119.4-20.4,120.1z"/>
<path class="st2" d="M19.9,123c-5.8,3.9-10.2,7-13.2,9.2c-1,0.7-1.8,1.3-2.5,1.7c-0.6,0.4-1.5,0.8-2.5,1.3c-1,0.4-2,0.7-2.9,0.7h0h0
	c-0.9,0-1.9-0.2-2.9-0.7c-1-0.4-1.9-0.9-2.5-1.3c-0.6-0.4-1.4-1-2.5-1.7c-2.4-1.8-6.8-4.8-13.2-9.2c-1-0.7-1.9-1.4-2.7-2.3v21.1
	c0,1.2,0.4,2.2,1.2,3c0.8,0.8,1.8,1.2,3,1.2h39.1c1.2,0,2.2-0.4,3-1.2c0.8-0.8,1.2-1.8,1.2-3v-21.1C21.8,121.5,20.9,122.3,19.9,123z
	"/>
<path class="st0" d="M-63.3,118.5l33.5-1.7c0.5,0,0.9,0.4,0.9,0.9v2.9c0,0.5-0.4,0.9-0.9,0.9l-33.5-1.8
	C-63.9,119.7-63.9,118.5-63.3,118.5z"/>
<path class="st0" d="M-63.3,128l33.5-1.7c0.5,0,0.9,0.4,0.9,0.9v2.9c0,0.5-0.4,0.9-0.9,0.9l-33.5-1.8C-63.9,129.2-63.9,128-63.3,128
	z"/>
<path class="st0" d="M-63.3,137.1l33.5-1.7c0.5,0,0.9,0.4,0.9,0.9v2.9c0,0.5-0.4,0.9-0.9,0.9l-33.5-1.8
	C-63.9,138.3-63.9,137.1-63.3,137.1z"/>
</svg>
